<?xml version="1.0" standalone="no"?>
<!DOCTYPE svg PUBLIC "-//W3C//DTD SVG 1.1//EN" "http://www.w3.org/Graphics/SVG/1.1/DTD/svg11.dtd" >
<svg xmlns="http://www.w3.org/2000/svg">
<metadata>Generated by IcoMoon</metadata>
<defs>
<font id="icomoon" horiz-adv-x="1024">
<font-face units-per-em="1024" ascent="960" descent="-64" />
<missing-glyph horiz-adv-x="1024" />
<glyph unicode="&#x20;" horiz-adv-x="512" d="" />
<glyph unicode="&#xe900;" glyph-name="icon-player" horiz-adv-x="1441" d="M135.509 960c-0.079 0-0.172 0-0.266 0-74.693 0-135.244-60.551-135.244-135.244 0-0.093 0-0.187 0-0.28v-745.382c0-0.079 0-0.172 0-0.266 0-74.693 60.551-135.244 135.244-135.244 0.093 0 0.187 0 0.28 0h1151.948c0.079 0 0.172 0 0.266 0 74.693 0 135.244 60.551 135.244 135.244 0 0.093 0 0.187 0 0.28v745.382c0 0.079 0 0.172 0 0.266 0 74.693-60.551 135.244-135.244 135.244-0.093 0-0.187 0-0.28 0h-1151.948zM575.981 688.943l372.66-237.151-372.66-237.151v474.302z" />
<glyph unicode="&#xe901;" glyph-name="icon-upload" horiz-adv-x="1081" d="M1045.45 326.737h-98.698c-14.672 0-20.909-6.324-20.909-21.199v-207.854h-770.798v207.854c0 14.821-6.237 21.199-20.909 21.199h-98.698c-14.601 0-26.579-6.324-26.579-21.199v-331.004c0-14.821 11.978-25.061 26.579-25.061h1010.011c14.601 0 26.579 10.168 26.579 25.061v331.004c0 14.875-11.978 21.199-26.579 21.199v0zM460.707 282.453c0-14.803 15.788-23.085 30.389-23.085h98.698c14.601 0 30.389 8.282 30.389 23.085v286.81h224.063l-303.801 384.988-303.801-384.988h224.063v-286.81z" />
<glyph unicode="&#xe902;" glyph-name="icon-approved" horiz-adv-x="1325" d="M375.868 173.929l-269.252 269.854-106.616-106.616 375.868-376.471 892.687 892.687-106.014 106.616-382.494-382.494z" />
<glyph unicode="&#xe903;" glyph-name="icon-caret" horiz-adv-x="1170" d="M1170.286 960l-585.143-1013.76-585.143 1013.76z" />
<glyph unicode="&#xe904;" glyph-name="icon-lock" horiz-adv-x="725" d="M669.013 500.48v153.173c0 168.96-137.387 306.347-306.347 306.347s-306.347-137.387-306.347-306.347v-153.173h-56.32v-561.92h725.333v561.92zM137.813 653.653c0 123.733 101.12 224.427 224.853 224.427s224.853-100.693 224.853-224.427v-153.173h-449.707z" />
<glyph unicode="&#xe905;" glyph-name="icon-question-mark" d="M0 448c0-283.307 228.693-512 512-512s512 228.693 512 512c0 283.307-228.693 512-512 512s-512-228.693-512-512zM450.56 224.768c0 34.133 27.307 61.44 61.44 61.44s61.44-27.307 61.44-61.44c0-34.133-27.307-61.44-61.44-61.44s-61.44 27.307-61.44 61.44zM628.053 483.499c-5.461-6.144-12.288-11.605-20.48-20.48-8.875-8.192-15.701-15.019-21.845-21.845-5.461-5.461-10.923-11.605-14.336-15.701-10.24-13.653-15.019-32.085-13.653-49.152v-35.499h-88.747v47.787c-1.365 16.384 0.683 32.085 7.509 47.787 9.557 15.019 19.115 28.672 33.451 40.96l56.661 56.661c12.288 13.653 18.432 30.72 18.432 49.152s-6.827 35.499-19.797 47.787c-12.288 12.288-30.72 19.115-48.469 19.115-18.432 1.365-36.864-5.461-50.517-17.749-13.653-12.971-21.845-30.72-22.528-49.152h-95.573c3.413 42.325 22.528 81.92 54.613 109.227 32.768 27.307 73.728 40.96 117.419 39.595 40.96 2.731 81.92-10.923 113.323-37.547 30.037-24.576 44.373-61.44 44.373-106.496-0.683-28.672-10.24-56.661-27.307-78.507-6.827-8.875-14.336-18.432-22.528-25.941z" />
<glyph unicode="&#xe906;" glyph-name="icon-star" horiz-adv-x="1073" d="M867.962-60.099l-331.581 240.884-331.581-240.884 126.781 389.608-331.581 240.884h409.6l126.781 389.608 126.781-389.608h409.6l-331.581-240.884zM536.381 233.935l249.661-181.882-95.086 294.034 249.661 181.394h-308.663l-95.573 293.547-95.573-293.547h-308.663l249.661-181.394-95.086-294.034z" />
<glyph unicode="&#xe907;" glyph-name="video-icon" horiz-adv-x="1408" d="M81.28 960c-44.8 0-81.28-36.48-81.28-81.28v-812.16c0-44.8 36.48-81.28 81.28-81.28h1245.44c44.8 0 81.28 36.48 81.28 81.28v812.16c0 44.8-36.48 81.28-81.28 81.28zM557.44 275.2c-18.56-10.88-13.44-3.2-13.44 18.56v357.76c0 21.76-2.56 29.44 13.44 18.56l292.48-178.56c16.64-10.88 24.32-26.88 8.32-37.76z" />
<glyph unicode="&#xe908;" glyph-name="icon-arrow" d="M725.938 532.017l-427.983 427.983-82.751-82.857 427.983-427.983-408.496-408.496 82.751-82.857 491.353 491.353z" />
<glyph unicode="&#xe909;" glyph-name="icon-plus" d="M576.004 960h-128.008v-447.996h-447.996v-128.008h447.996v-447.996h128.008v447.996h447.996v128.008h-447.996z" />
<glyph unicode="&#xe90a;" glyph-name="icon-close" d="M1024-35.84l-483.84 483.84 483.84 483.84-28.16 28.16-483.84-483.84-483.84 483.84-28.16-28.16 483.84-483.84-483.84-483.84 28.16-28.16 483.84 483.84 483.84-483.84z" />
<glyph unicode="&#xe90b;" glyph-name="icon-time" d="M508.631 960c-280.906 0-508.631-227.592-508.631-508.499 0-281.038 227.724-508.664 508.631-508.664s508.631 227.625 508.631 508.664c0 280.774-227.724 508.499-508.631 508.499v0zM504.634 66.841c-237.535 0-430.311 192.545-430.311 430.080s192.776 430.047 430.311 430.047c237.535 0 430.047-192.512 430.047-430.047-0.099-237.667-192.644-430.080-430.047-430.080v0zM576.908 518.061l129.42 289.528-45.419 20.282-128.76-288.405c-3.634 0.529-7.234 1.156-10.835 1.156-44.131 0-79.872-35.080-81.061-78.683l-275.093-51.101 9.051-48.789 279.849 51.762c14.732-21.306 39.242-35.378 67.254-35.378 44.494 0 80.764 36.269 80.764 81.16 0 22.99-9.811 43.768-25.171 58.467v0z" />
<glyph unicode="&#xe90c;" glyph-name="icon-logout" d="M505.442 477.824h3.246c13.094 0 24.511 11.179 24.511 24v432c0 12.843-11.417 24-24.511 24h-3.246c-13.094 0-24.511-11.157-24.511-24v-430.4c0-14.336 9.782-25.6 24.511-25.6v0zM807.74 826.667c-11.395 8-29.435 6.421-37.605-4.843-8.17-11.157-6.558-28.821 4.924-36.821 112.771-81.579 181.357-212.843 181.357-352 0-241.579-199.31-436.843-446.115-436.843-246.719 0-446.137 196.843-446.137 436.843 0 139.157 65.362 267.157 179.745 350.421 11.417 8 14.728 25.579 4.946 36.821-8.17 11.179-26.123 14.421-37.627 4.843-127.477-92.843-201.009-236.843-201.009-392 0-270.421 223.82-489.579 499.995-489.579s499.995 219.157 499.995 489.579c0.174 155.157-74.97 302.421-202.469 393.579v0z" />
<glyph unicode="&#xe90d;" glyph-name="icon-approved-light" horiz-adv-x="1317" d="M0 391.422l82.215 80.791 324.685-324.685 812.471 812.471 82.215-80.887-894.686-894.686z" />
<glyph unicode="&#xe90e;" glyph-name="star" horiz-adv-x="1055" d="M527.515 960l126.322-380.811 401.193-2.438-323.105-237.812 121.618-382.327-326.028 233.779-326.028-233.779 121.618 382.327-323.105 237.812 401.193 2.501z" />
<glyph unicode="&#xe90f;" glyph-name="icon-arrow-left" horiz-adv-x="1265" d="M563.058 753.412h645.664c29.421 0 56.219-26.498 56.219-55.47v-666.315c0-29.122-26.798-55.47-56.219-55.47h-112.439c-29.421 0-56.219 26.498-56.219 55.47v499.68h-477.005v-206.401c-216.071 119.598-370.375 208.462-563.058 317.528 215.059 121.397 369.813 209.362 563.058 317.566v-206.588z" />
<glyph unicode="&#xe910;" glyph-name="icon-refresh" d="M871.102 807.451c-87.627 85.647-202.192 134.076-318.027 144.002-117.651 10.022-236.435-17.927-336.009-88.009l-9.967-8.001c-189.017-140.261-259.468-392.315-166.025-607.997 95.355-227.41 343.463-351.041 583.994-300.046 228.803 51.623 396.056 262.499 396.056 497.964h-128c0-173.493-126.935-333.332-294.025-372.053-183.2-37.492-369.227 55.255-440.006 223.997-71.243 164.386-18.61 355.424 129.98 460.063 145.326 102.291 358.714 86.289 489.977-41.97l-142.036-142.036h384v384l-149.914-149.914z" />
<glyph unicode="&#xe911;" glyph-name="icon-rewatch" horiz-adv-x="945" d="M767.845 409.678c0-178.081-145.069-322.912-323.443-322.912s-323.443 144.831-323.443 322.912c0 178.081 145.069 322.912 323.443 322.912v-89.691l215.618 143.515-215.618 143.515v-89.706c-238.143 0-431.252-192.777-431.252-430.544 0-237.752 193.109-430.544 431.252-430.544 90.717 0 174.899 27.976 244.361 75.757 112.884 77.649 186.891 207.603 186.891 354.787h-107.809zM372.519 266.163l215.634 143.515-215.634 143.515z" />
<glyph unicode="&#xe912;" glyph-name="icon-fat-close" d="M1024 80.556l-144.65-144.556-367.35 367.444-367.35-367.444-144.65 144.556 368.004 367.444-368.004 367.444 144.65 144.556 367.35-367.444 367.35 367.444 144.65-144.556-367.481-367.444z" />
<glyph unicode="&#xe913;" glyph-name="icon-bell" horiz-adv-x="896" d="M434.133-61.49c56.182 0 102.149 45.967 102.149 102.149h-204.298c0-56.182 45.967-102.149 102.149-102.149v0zM766.118 244.957v280.91c0 158.331-107.256 286.017-255.373 321.769v35.752c0 40.86-35.752 76.612-76.612 76.612s-76.612-35.752-76.612-76.612v-35.752c-148.116-35.752-255.373-163.438-255.373-321.769v-280.91l-102.149-102.149v-51.075h868.267v51.075l-102.149 102.149z" />
<glyph unicode="&#xe914;" glyph-name="menu-close" d="M104.706 131.381l724.077 724.077 90.51-90.51-724.077-724.077-90.51 90.51zM195.216 855.458l724.077-724.077-90.51-90.51-724.077 724.077 90.51 90.51z" />
</font>
</defs>
</svg>
